<?xml version="1.0" encoding="UTF-8" standalone="no" ?>
<!DOCTYPE svg PUBLIC "-//W3C//DTD SVG 1.1//EN" "http://www.w3.org/Graphics/SVG/1.1/DTD/svg11.dtd">
<svg xmlns="http://www.w3.org/2000/svg" xmlns:xlink="http://www.w3.org/1999/xlink" version="1.1" width="1080" height="1080" viewBox="0 0 1080 1080" xml:space="preserve">
<desc>Created with Fabric.js 5.2.4</desc>
<defs>
</defs>
<g transform="matrix(1 0 0 1 540 540)" id="266e109b-4038-47bb-8afb-3c1244b03ecd"  >
<rect style="stroke: none; stroke-width: 1; stroke-dasharray: none; stroke-linecap: butt; stroke-dashoffset: 0; stroke-linejoin: miter; stroke-miterlimit: 4; fill: rgb(255,255,255); fill-rule: nonzero; opacity: 1; visibility: hidden;" vector-effect="non-scaling-stroke"  x="-540" y="-540" rx="0" ry="0" width="1080" height="1080" />
</g>
<g transform="matrix(1 0 0 1 540 540)" id="ca43a2a8-de34-4e55-87df-72d149412792"  >
</g>
<g transform="matrix(1 0 0 1 540 540)"  >
<g style="" vector-effect="non-scaling-stroke"   >
		<g transform="matrix(1 0 0 1 -46.55 -157.95)"  >
<path style="stroke: none; stroke-width: 1; stroke-dasharray: none; stroke-linecap: butt; stroke-dashoffset: 0; stroke-linejoin: miter; stroke-miterlimit: 4; fill: rgb(68,150,60); fill-rule: nonzero; opacity: 1;" vector-effect="non-scaling-stroke"  transform=" translate(-472.27, -284.8)" d="M 575 82.918205 C 596.32959 82.832062 617.15918 82.693802 637.988831 82.671532 C 655.416992 82.652901 671.245789 76.571785 686.780579 69.66243 C 692.262878 67.224106 696.232239 62.351341 700.824829 58.507584 C 702.359985 57.222748 703.781799 55.756145 705.765381 55.200058 C 709.230164 54.228729 711.557129 56.243664 710.591492 59.590603 C 701.423706 91.36454 683.449463 115.536148 650.969177 126.211235 C 634.758484 131.539093 617.722351 133.02626 600.704407 133.135498 C 562.545166 133.380463 524.38385 133.293671 486.223328 133.335495 C 481.376068 133.340805 476.525879 133.720245 471.905029 135.094025 C 457.104034 139.494293 446.095215 149.174744 442.23819 163.739273 C 435.845978 187.876953 451.090546 210.05278 475.171509 210.639893 C 481.833252 210.802322 488.508728 210.855667 495.165955 210.621048 C 501.991364 210.380508 507.493073 212.690216 511.921539 217.865143 C 518.642029 225.718491 525.938965 233.028763 533.196716 240.382751 C 560.104065 267.646759 586.905701 295.015137 613.798462 322.29361 C 622.10083 330.715027 630.557251 338.984863 638.961487 347.305542 C 645.22937 353.511139 645.645325 357.504822 641.971069 365.602264 C 626.359436 400.007843 598.543091 418.54184 562.481506 424.720123 C 535.827209 429.286713 509.447357 426.427246 484.140137 415.716309 C 469.736877 409.620331 454.904572 404.684662 439.27182 402.449799 C 419.273376 399.590759 399.500824 400.239807 379.794098 404.781311 C 354.161224 410.688568 330.12088 420.607239 309.144135 436.317017 C 283.343567 455.639404 262.188477 479.170258 251.116425 510.331299 C 250.424301 512.279175 249.766006 514.967896 247.012695 514.62439 C 244.167679 514.269531 242.212662 512.302002 241.86084 509.286987 C 239.821671 491.811188 235.053436 474.71463 234.766098 456.987823 C 234.628525 448.501495 233.822006 440.024597 233.734467 431.539154 C 233.546738 413.339111 236.021408 395.521606 240.056931 377.7052 C 242.65741 366.224365 244.061523 354.367279 248.049667 343.286896 C 259.148682 312.450104 273.397797 283.264709 293.425659 256.981873 C 305.366272 241.312088 317.507141 225.906494 331.706421 212.248566 C 338.481049 205.732254 341.735779 197.547485 344.66571 188.971786 C 352.961212 164.691498 367.050598 144.163925 385.395325 126.360405 C 400.173187 112.018547 416.789154 100.517921 436.325867 93.856003 C 451.126617 88.809021 466.408813 85.800247 482.107056 84.580391 C 512.887024 82.188576 543.698181 83.153076 575 82.918205 z" stroke-linecap="round" />
</g>
		<g transform="matrix(1 0 0 1 0 22.05)"  >
<path style="stroke: none; stroke-width: 1; stroke-dasharray: none; stroke-linecap: butt; stroke-dashoffset: 0; stroke-linejoin: miter; stroke-miterlimit: 4; fill: rgb(68,150,60); fill-rule: nonzero; opacity: 1;" vector-effect="non-scaling-stroke"  transform=" translate(-518.82, -464.81)" d="M 612.081848 820.294373 C 569.977295 830.048401 527.768188 832.047852 485.144226 829.608948 C 461.221985 828.240112 437.863922 823.928711 415.027344 817.265869 C 372.514374 804.862061 333.020325 785.683289 296.452332 760.761536 C 270.992188 743.410095 248.831604 722.22821 228.927444 698.76062 C 205.336731 670.946472 184.820557 640.993286 169.727554 607.720215 C 154.76767 574.74054 143.753754 540.49231 138.41687 504.451904 C 135.210693 482.800476 134.347366 461.095276 134.068909 439.319763 C 133.849335 422.148438 134.901352 404.853577 138.213333 388.134338 C 143.466202 361.61734 149.431137 335.236206 159.18782 309.737793 C 170.360977 280.537537 186.479538 254.238174 202.824585 227.935883 C 212.083878 213.035965 222.226196 198.786118 234.919128 186.594223 C 255.581879 166.747086 276.038788 146.474548 300.036194 130.699783 C 314.224243 121.37323 326.935303 109.882317 342.167542 102.152107 C 344.229767 101.10556 346.430603 100.303223 348.624237 99.554886 C 350.013367 99.080986 351.669373 98.525803 352.731049 100.09008 C 353.773682 101.626328 352.72876 102.972313 351.802124 104.147278 C 347.986816 108.985161 344.18396 113.83493 340.268341 118.59124 C 326.519684 135.291565 314.880127 153.194595 307.68634 173.794479 C 304.845398 181.929733 299.597992 188.635406 293.640289 194.831146 C 266.835083 222.707306 243.646606 253.423203 224.890671 287.163239 C 208.246201 317.10498 196.053619 349.086487 189.719452 382.855438 C 187.038712 397.147095 185.028152 411.736237 185.14743 426.446014 C 185.293365 444.443237 184.847656 462.458344 185.528595 480.432739 C 185.871796 489.492493 187.869797 498.53064 189.581802 507.490204 C 196.113892 541.67511 207.479553 574.112305 224.117035 604.785156 C 244.535477 642.428528 271.209686 674.728516 303.361237 702.978577 C 328.727966 725.267151 357.402252 741.776672 388.045441 755.108398 C 399.279816 759.996033 410.566193 765.038879 422.550568 768.151672 C 444.26709 773.792297 466.033752 778.659973 488.595215 779.962341 C 513.446838 781.396973 538.28064 781.384949 562.878967 778.279602 C 590.915283 774.740295 617.994568 767.382874 644.419312 756.583435 C 681.11969 741.584595 713.561401 720.714905 742.973816 694.397034 C 786.317627 655.613464 816.257385 608.211792 835.901672 553.807312 C 843.84967 531.795654 849.363586 509.304382 851.721497 486.047455 C 854.500122 458.639984 853.873962 431.313202 851.074097 403.876343 C 848.669678 380.314423 842.941284 357.61557 834.765381 335.693573 C 819.83136 295.650726 800.064392 258.198151 770.217651 226.86467 C 768.726013 225.29866 767.346802 223.620117 765.981873 221.939865 C 761.993164 217.029587 761.234741 212.49025 764.801819 207.244308 C 771.725403 197.062271 775.571289 185.495621 780.487793 174.407776 C 782.707703 169.401443 785.191345 168.648163 789.015686 172.568329 C 817.32959 201.591461 841.374207 233.755081 860.068237 269.811279 C 868.710999 286.48111 875.955627 303.757599 882.374756 321.39682 C 887.941345 336.69342 891.911499 352.397064 895.512024 368.262115 C 899.19397 384.486023 900.237488 401.048615 902.742126 417.412231 C 904.289307 427.520813 903.248291 438.028473 903.329651 448.357269 C 903.371704 453.689758 903.306885 459.02298 903.325623 464.355774 C 903.385437 481.382355 900.628845 498.094116 897.686462 514.782532 C 893.055725 541.046692 885.24762 566.440063 875.289856 591.08606 C 861.041931 626.350281 841.972168 658.876709 817.624878 688.231995 C 808.475586 699.263123 799.402344 710.360291 789.361328 720.591064 C 773.437012 736.816162 755.211304 750.245789 736.88208 763.579651 C 711.465637 782.069275 683.292358 795.259216 654.272766 806.683289 C 640.675415 812.036133 626.439636 815.767151 612.081848 820.294373 z" stroke-linecap="round" />
</g>
		<g transform="matrix(1 0 0 1 -143.17 133.6)"  >
<path style="stroke: none; stroke-width: 1; stroke-dasharray: none; stroke-linecap: butt; stroke-dashoffset: 0; stroke-linejoin: miter; stroke-miterlimit: 4; fill: rgb(68,150,60); fill-rule: nonzero; opacity: 1;" vector-effect="non-scaling-stroke"  transform=" translate(-375.65, -576.36)" d="M 428.43988 483.430176 C 419.29837 495.157684 411.346619 507.211395 404.680145 520.140015 C 395.14032 538.641052 388.961029 558.183838 385.893036 578.72229 C 384.534119 587.819397 385.880493 597.033142 385.221436 606.148865 C 383.239807 633.55719 392.264404 658.61084 401.657471 683.532593 C 403.799866 689.216797 407.972992 694.104309 410.682068 699.61853 C 412.221069 702.751038 415.157532 706.865662 412.422546 709.796936 C 409.707703 712.706726 405.861572 709.399536 402.933777 708.021851 C 373.506256 694.1745 345.855194 677.403687 323.435638 653.592651 C 306.396515 635.495972 296.366913 613.370239 292.918976 588.61615 C 287.709167 551.212769 296.936371 517.4198 320.636566 488.205688 C 334.238953 471.438599 350.291168 456.967804 371.27121 449.550293 C 389.689941 443.03833 408.641357 440.271057 428.196869 442.536194 C 435.620697 443.396088 443.077148 443.973846 450.517853 444.689331 C 451.179352 444.75296 451.877472 444.771332 452.484863 445.00354 C 455.043823 445.981934 458.706757 445.661316 459.611664 448.802429 C 460.523438 451.967407 457.579071 453.735687 455.507538 455.648956 C 446.084686 464.351715 436.760925 473.154114 428.43988 483.430176 z" stroke-linecap="round" />
</g>
		<g transform="matrix(1 0 0 1 104.69 167.12)"  >
<path style="stroke: none; stroke-width: 1; stroke-dasharray: none; stroke-linecap: butt; stroke-dashoffset: 0; stroke-linejoin: miter; stroke-miterlimit: 4; fill: rgb(68,150,60); fill-rule: nonzero; opacity: 1;" vector-effect="non-scaling-stroke"  transform=" translate(-623.51, -609.87)" d="M 624.075867 711.212891 C 612.907654 715.707825 601.908569 719.491577 590.689026 722.676941 C 581.986023 725.147766 578.813171 722.876709 579.959534 714.089172 C 580.632202 708.932617 580.691345 703.796936 580.697815 698.638367 C 580.759521 649.150024 580.817383 599.661743 580.841248 550.173401 C 580.844482 543.501648 581.00946 536.837219 582.193909 530.269104 C 584.91803 515.163391 595.974121 509.373718 609.41803 507.108185 C 623.532166 504.729645 637.229065 500.504578 651.352112 498.255768 C 654.964966 497.680481 658.655334 497.400574 662.172974 496.467834 C 666.616638 495.28952 667.363708 497.354553 667.283691 501.071045 C 667.14032 507.732849 667.219849 514.399536 667.216553 521.064209 C 667.190552 573.551758 667.075073 626.039612 667.236389 678.52655 C 667.262268 686.926208 663.934937 692.318359 656.492737 695.916687 C 645.849182 701.062866 635.439697 706.694702 624.075867 711.212891 z" stroke-linecap="round" />
</g>
		<g transform="matrix(1 0 0 1 231.63 87.32)"  >
<path style="stroke: none; stroke-width: 1; stroke-dasharray: none; stroke-linecap: butt; stroke-dashoffset: 0; stroke-linejoin: miter; stroke-miterlimit: 4; fill: rgb(68,150,60); fill-rule: nonzero; opacity: 1;" vector-effect="non-scaling-stroke"  transform=" translate(-750.45, -530.07)" d="M 707.774658 602 C 708.075989 576.513123 708.020203 551.524048 708.349365 526.535217 C 708.59906 507.572479 708.366882 488.558105 707.901978 469.575684 C 707.648621 459.23056 706.997925 448.634766 709.128967 438.711395 C 711.515991 427.59668 717.596985 418.187531 730.417419 415.082916 C 749.308655 410.50824 768.131714 405.644592 787.14093 401.575989 C 793.178833 400.283661 794.217102 401.273529 794.156433 407.574799 C 793.894958 434.727692 793.786133 461.885895 793.097595 489.028839 C 792.84967 498.801849 790.531494 508.440857 788.520264 518.036865 C 777.872559 568.839417 754.603638 612.9505 718.471558 650.258972 C 716.393127 652.405151 714.605713 654.833374 712.686035 657.132935 C 711.832031 658.155945 711.019775 659.416687 709.448059 658.963745 C 708.019348 658.55188 707.336914 657.220398 707.184326 655.902039 C 706.898682 653.433716 706.58252 650.900696 706.829468 648.450073 C 708.370972 633.153259 707.394409 617.813965 707.774658 602 z" stroke-linecap="round" />
</g>
		<g transform="matrix(1 0 0 1 -22.51 211.74)"  >
<path style="stroke: none; stroke-width: 1; stroke-dasharray: none; stroke-linecap: butt; stroke-dashoffset: 0; stroke-linejoin: miter; stroke-miterlimit: 4; fill: rgb(68,150,60); fill-rule: nonzero; opacity: 1;" vector-effect="non-scaling-stroke"  transform=" translate(-496.31, -654.5)" d="M 493.339905 730.003784 C 483.439789 729.089294 474.002136 728.224426 464.562073 727.386597 C 457.034637 726.718445 454.379852 723.949707 453.517639 716.587708 C 452.307159 706.25238 453.560211 695.952148 453.585297 685.636597 C 453.640015 663.139648 453.734497 640.642212 453.628448 618.145813 C 453.588562 609.680054 456.756866 602.525085 461.886597 596.172791 C 465.824615 591.296143 472.09549 590.614014 477.585052 589.196289 C 494.476898 584.833618 511.530243 581.095398 528.527283 577.142334 C 529.65271 576.880493 530.829102 576.773376 531.987122 576.725952 C 539.550354 576.416138 539.991394 577.073242 539.468384 584.644348 C 539.113098 589.787842 539.30304 594.97113 539.30127 600.136597 C 539.287964 639.631592 539.288574 679.126648 539.279358 718.621643 C 539.278931 720.454102 539.357666 722.299866 539.173889 724.116638 C 538.419373 731.577087 536.603394 732.778442 529.180237 732.208679 C 517.401855 731.304749 505.595734 730.761047 493.339905 730.003784 z" stroke-linecap="round" />
</g>
		<g transform="matrix(1 0 0 1 141.51 -235.45)"  >
<path style="stroke: none; stroke-width: 1; stroke-dasharray: none; stroke-linecap: butt; stroke-dashoffset: 0; stroke-linejoin: miter; stroke-miterlimit: 4; fill: rgb(68,150,60); fill-rule: nonzero; opacity: 1;" vector-effect="non-scaling-stroke"  transform=" translate(-660.32, -207.3)" d="M 727.65155 159.663879 C 730.194397 156.993591 732.533203 154.619415 734.784912 152.165298 C 736.92395 149.834 739.363892 149.028152 743.05896 150.507996 C 741.193909 156.711777 738.656982 162.685776 735.239807 167.999344 C 724.178711 185.199005 714.334961 203.254532 700.149048 218.315033 C 693.831421 225.022156 687.07782 231.117172 679.5354 236.390762 C 664.390137 246.980087 649.551575 258.04184 631.742065 264.096069 C 628.942139 265.047882 626.763611 265.204132 624.206726 263.853577 C 620.637451 261.968292 617.297852 259.867126 614.671936 256.728699 C 604.574585 244.660553 592.955566 234.204117 580.563171 224.563446 C 579.192627 223.497238 576.954163 222.613617 577.761963 220.369385 C 578.532349 218.229095 580.789429 218.675293 582.573853 218.674835 C 590.237488 218.672913 597.928284 219.165817 605.559692 218.687988 C 629.542236 217.186295 652.568726 212.091797 673.421204 199.408646 C 682.645813 193.797928 692.472717 189.29303 701.434204 183.122543 C 711.13324 176.444229 720.011292 169.072083 727.65155 159.663879 z" stroke-linecap="round" />
</g>
</g>
</g>
<g transform="matrix(NaN NaN NaN NaN 0 0)"  >
<g style=""   >
</g>
</g>
<g transform="matrix(NaN NaN NaN NaN 0 0)"  >
<g style=""   >
</g>
</g>
</svg>